<?xml version="1.0" encoding="UTF-8"?>
<svg width="41" height="65" version="1.1" viewBox="0 0 41 65" xml:space="preserve" xmlns="http://www.w3.org/2000/svg"><g id="blanca" transform="matrix(-1.4705 0 0 -1.4705 366.8 381.75)"><g transform="matrix(.9777 0 0 .9777 -58.901 -73.955)"><g transform="matrix(-.22276 0 0 -.22276 343.58 344.28)"><path d="m190.51 14.28v151.19c-4.4513-6.3552-22.554-7.3123-35.246-0.31697-15.042 8.2908-21.903 23.837-15.341 34.738 6.5624 10.901 24.07 13.045 39.112 4.7544 9.0301-4.977 15.049-12.587 17.052-20.222 0.9178-4.1966 0.38247-6.3738 0.31696-9.3185v-106.81c65.996 16.718 35.538 74.672 29.602 95.143 54.218-74.053-28.862-104.26-29.602-149.15z" fill="#fff" fill-rule="evenodd"/></g></g></g></svg>
