<?xml version="1.0" encoding="UTF-8"?>
<svg width="41" height="65" version="1.1" viewBox="0 0 41 65" xml:space="preserve" xmlns="http://www.w3.org/2000/svg"><g id="blanca" transform="matrix(-1.4705 0 0 -1.4705 366.8 381.75)"><g transform="matrix(.9777 0 0 .9777 -58.901 -73.955)"><g transform="matrix(-.22276 0 0 -.22276 343.58 344.28)"><g transform="matrix(3.1224 0 0 3.1224 -85.706 -198.06)"><g transform="translate(-5.982 -1.1271)" fill="#fff"><g transform="matrix(1.2743 0 0 1.2743 -33.555 -27.836)" fill="#fff"><g transform="matrix(.78478 0 0 .78478 9.068 15.567)"><g transform="matrix(.90758 0 0 .90758 23.179 29.317)" fill="#fff"><g transform="matrix(-1.6094 0 0 -1.6094 489.11 469.92)" fill="#fff"><g transform="matrix(1.0121 0 0 1.0121 -69.722 -85.531)"><path d="m303.14 299.65c-3.3958 1.82-5.2053 5.1146-4.0922 7.593 1.1873 2.6436 5.267 3.3897 9.1066 1.6654 3.8396-1.7244 5.9922-5.2694 4.8049-7.913-1.1873-2.6436-5.267-3.3897-9.1066-1.6654-0.23997 0.10777-0.48628 0.19874-0.71268 0.32007z" fill="#fff" fill-rule="evenodd"/><path d="m299.5 305.98v33.588" fill="none" stroke="#fff" stroke-width="1.5"/></g></g></g></g></g></g></g></g></g></g></svg>
