<?xml version="1.0" encoding="UTF-8"?>
<svg width="41" height="65" version="1.1" viewBox="0 0 41 65" xml:space="preserve" xmlns="http://www.w3.org/2000/svg"><g id="blanca" transform="matrix(-1.4705 0 0 -1.4705 366.8 381.75)"><g transform="matrix(.9777 0 0 .9777 -58.901 -73.955)"><g transform="matrix(-.22276 0 0 -.22276 343.58 344.28)"><g transform="matrix(3.1224 0 0 3.1224 -85.706 -198.06)"><g transform="translate(-5.982 -1.1271)" fill="#fff"><g transform="matrix(1.2743 0 0 1.2743 -33.555 -27.836)" fill="#fff"><g transform="matrix(.78478 0 0 .78478 9.068 15.567)"><g transform="matrix(.90758 0 0 .90758 23.179 29.317)" fill="#fff"><g transform="matrix(-1.6094 0 0 -1.6094 489.11 469.92)" fill="#fff"><g transform="matrix(1.0121 0 0 1.0121 -69.722 -85.531)"><g id="redonda" transform="matrix(-.055548 0 0 -.055548 351.21 337.23)" fill="#fff" style="isolation:isolate"><path d="m736.16 469.33c-66.838-15.858-114.55-50.097-135.29-90.239-9.753-18.158-15.53-37.956-16.83-58.566-0.02-0.313-0.018-0.592-0.023-0.889-0.392-23.02 5.778-44.762 24.652-69.314 17.308-22.64 43.806-42.035 78.068-56.932 36.226-15.815 79.165-23.652 125.44-22.222 9.411 0.291 18.689 0.952 27.804 1.96 9.907 1.012 19.62 2.44 29.098 4.255 18.417 3.028 35.951 7.614 52.309 13.552 16.085 5.606 30.843 12.335 45.355 21.025 12.834 7.686 22.84 15.234 32.661 24.364 4.921 4.762 9.494 9.721 13.688 14.857 3.308 4.184 6.383 8.453 9.21 12.796 3.139 5.051 5.91 9.894 8.495 15.378 8.466 17.957 12.92 38.34 13.381 55.588 0.012 34.166-17.341 64.891-46.361 89.128-21.386 18.634-47.002 32.544-80.167 42.943-24.709 7.748-50.466 11.931-76.045 12.672-8.471 0.429-15.011 0.119-23.625 0.037-29.027-0.936-56.537-4.527-81.819-10.393zm143.84-43.328c4.439-3.437 7.498-6.607 12.172-12.12 8.091-9.544 13.459-19.074 16.816-31.635 0.378-1.23 0.719-2.466 1.022-3.708 0.734-2.901 1.263-5.821 1.603-8.749 0.69-9.554 0.159-20.798-2.695-31.632-0.726-3.144-1.419-6.084-2.099-8.889-2.919-13.016-5.739-22.978-10.52-36.456-0.283-0.759-0.647-1.899-0.939-2.658-10.098-26.275-20.545-44.214-35.316-57.572-20.136-19.014-49.794-29.646-81.451-19.938-12.677 3.888-23.239 10.473-30.241 17.611-4.079 4.084-8.056 9.15-11.144 14.084-7.831 12.598-11.601 22.146-12.859 35.568-0.276 4.734-0.589 10.487 0 16 0.976 6.177 1.569 11.353 2.825 17.31 3.503 17.975 8.48 34.381 12.439 46.697 0.045 0.14 0.084 0.283 0.126 0.424 1.891 6.32 4.168 12.34 6.777 18.038 2.144 4.922 4.799 10.545 7.363 14.974 1.723 3.11 3.538 6.139 5.412 9 3.216 4.944 6.273 8.387 9.747 12.328 5.496 6.042 11.269 10.928 17.241 14.796 9.372 5.718 19.05 9.174 28.766 10.844 17.825 3.677 37.728 0.538 48.221-4.439 6.956-3.299 10.687-5.196 16.734-9.878z" fill="#fff" fill-rule="evenodd"/></g></g></g></g></g></g></g></g></g></g></g></svg>
