<?xml version="1.0" encoding="UTF-8"?>
<svg width="41" height="65" version="1.1" viewBox="0 0 41 65" xml:space="preserve" xmlns="http://www.w3.org/2000/svg"><g id="blanca" transform="matrix(-1.4705 0 0 -1.4705 366.8 381.75)"><g transform="matrix(.9777 0 0 .9777 -58.901 -73.955)"><g transform="matrix(-.22276 0 0 -.22276 343.58 344.28)"><g transform="matrix(3.1224 0 0 3.1224 -85.706 -198.06)"><path d="m88.478 67.343v49.293c-1.2477-1.6924-6.495-2.7938-11.023 0.10402-4.5285 2.8978-7.247 7.7434-5.6781 10.607 1.7909 3.2692 7.7443 5.019 12.479 1.6223 3.4242-2.4563 5.0706-5.6126 5.5949-6.5517v-29.722c12.699 7.759 19.588 9.9777 13.187 27.496 12.231-18.687-3.0202-21.143-13.187-39.476v-1.3935c17.216 8.7311 13.762 16.9 15.308 21.381 4.2826-17.944-11.088-19.758-15.308-32.488v-0.76956z" fill="#fff"/></g></g></g></g></svg>
