<?xml version="1.0" encoding="UTF-8"?>
<svg width="41" height="65" version="1.1" viewBox="0 0 41 65" xml:space="preserve" xmlns="http://www.w3.org/2000/svg"><g id="blanca" transform="matrix(-1.4705 0 0 -1.4705 366.8 381.75)"><g transform="matrix(.9777 0 0 .9777 -58.901 -73.955)"><g transform="matrix(-.22276 0 0 -.22276 343.58 344.28)"><g transform="matrix(3.1224 0 0 3.1224 -85.706 -198.06)"><g transform="translate(-5.982 -1.1271)" fill="#fff"><g transform="matrix(1.2743 0 0 1.2743 -33.555 -27.836)" fill="#fff"><g transform="matrix(.78478 0 0 .78478 9.068 15.567)"><g transform="matrix(.90758 0 0 .90758 23.179 29.317)" fill="#fff" stroke="#fff"><ellipse transform="matrix(1.0418 0 0 .99369 -3.2711 48.269)" cx="93.412" cy="37.343" rx="6.711" ry="7.0357"/><path transform="translate(.24708 46.943)" d="m99.37 74.904c0-0.98005 11.691-41.407 11.691-41.407" stroke-width="3"/><path transform="translate(.24708 46.943)" d="m93.352 44.391c5.4692 0.37443 15.719-1.0096 17.569-10.509-2.3559 3.7135-2.4393 10.949-16.136 7.7704" stroke-width="3"/><g transform="translate(167.44 12.875)"><ellipse transform="matrix(1.0418 0 0 .99369 -163.95 11.396)" cx="93.412" cy="37.343" rx="6.711" ry="7.0357"/><path d="m-56.192 67.91c0-0.98005 6.8219-24.344 6.8219-24.344" stroke-width="3"/><path d="m-67.079 54.46c5.4692 0.37443 15.719-1.0096 17.569-10.509-2.3559 3.7135-2.4393 10.949-16.136 7.7704" stroke-width="3"/></g></g></g></g></g></g></g></g></g></svg>
