<?xml version="1.0" encoding="UTF-8"?>
<svg width="41" height="65" version="1.1" viewBox="0 0 41 65" xml:space="preserve" xmlns="http://www.w3.org/2000/svg"><g id="blanca" transform="matrix(-1.4705 0 0 -1.4705 366.8 381.75)"><g transform="matrix(.9777 0 0 .9777 -58.901 -73.955)"><g transform="matrix(-.22276 0 0 -.22276 343.58 344.28)"><g transform="matrix(3.1224 0 0 3.1224 -85.706 -198.06)"><g transform="translate(-5.982 -1.1271)" fill="#fff"><g transform="matrix(1.2743 0 0 1.2743 -33.555 -27.836)" fill="#fff"><g transform="matrix(.78478 0 0 .78478 9.068 15.567)"><g transform="matrix(.90758 0 0 .90758 23.179 29.317)" fill="#fff"><g transform="matrix(-1.6094 0 0 -1.6094 489.11 469.92)" fill="#fff"><g transform="matrix(1.0121 0 0 1.0121 -69.722 -85.531)"><g id="redonda_silencio" transform="matrix(-.66161 0 0 -.66161 320.78 332.73)"><path d="m42 11h-40m0 9h40" stroke="#fff" stroke-width=".3"/><path d="m15.5 11v6h13v-6"/></g></g></g></g></g></g></g></g></g></g></g></svg>
