<?xml version="1.0" encoding="UTF-8" standalone="no"?>
<svg
   width="272mm"
   height="297mm"
   viewBox="0 0 272 297"
   version="1.1"
   xmlns="http://www.w3.org/2000/svg">

  <defs>
    <path id="fig_redonda"
          d="M 736.157,469.328 C 669.319,453.47 621.61,419.231 600.87,379.089 c -9.753,-18.158 -15.53,-37.956 -16.83,-58.566 -0.02,-0.313 -0.018,-0.592 -0.023,-0.889 -0.392,-23.02 5.778,-44.762 24.652,-69.314 17.308,-22.64 43.806,-42.035 78.068,-56.932 36.226,-15.815 79.165,-23.652 125.436,-22.222 9.411,0.291 18.689,0.952 27.804,1.96 9.907,1.012 19.62,2.44 29.098,4.255 18.417,3.028 35.951,7.614 52.309,13.552 16.085,5.606 30.843,12.335 45.355,21.025 12.834,7.686 22.84,15.234 32.661,24.364 4.921,4.762 9.494,9.721 13.688,14.857 3.308,4.184 6.383,8.453 9.21,12.796 3.139,5.051 5.91,9.894 8.495,15.378 8.466,17.957 12.92,38.34 13.381,55.588 0.012,34.166 -17.341,64.891 -46.361,89.128 -21.386,18.634 -47.002,32.544 -80.167,42.943 -24.709,7.748 -50.466,11.931 -76.045,12.672 -8.471,0.429 -15.011,0.119 -23.625,0.037 -29.027,-0.936 -56.537,-4.527 -81.819,-10.393 z M 880,426 c 4.439,-3.437 7.498,-6.607 12.172,-12.12 8.091,-9.544 13.459,-19.074 16.816,-31.635 0.378,-1.23 0.719,-2.466 1.022,-3.708 0.734,-2.901 1.263,-5.821 1.603,-8.749 0.69,-9.554 0.159,-20.798 -2.695,-31.632 -0.726,-3.144 -1.419,-6.084 -2.099,-8.889 -2.919,-13.016 -5.739,-22.978 -10.52,-36.456 -0.283,-0.759 -0.647,-1.899 -0.939,-2.658 -10.098,-26.275 -20.545,-44.214 -35.316,-57.572 -20.136,-19.014 -49.794,-29.646 -81.451,-19.938 -12.677,3.888 -23.239,10.473 -30.241,17.611 -4.079,4.084 -8.056,9.15 -11.144,14.084 -7.831,12.598 -11.601,22.146 -12.859,35.568 -0.276,4.734 -0.589,10.487 0,16 0.976,6.177 1.569,11.353 2.825,17.31 3.503,17.975 8.48,34.381 12.439,46.697 0.045,0.14 0.084,0.283 0.126,0.424 1.891,6.32 4.168,12.34 6.777,18.038 2.144,4.922 4.799,10.545 7.363,14.974 1.723,3.11 3.538,6.139 5.412,9 3.216,4.944 6.273,8.387 9.747,12.328 5.496,6.042 11.269,10.928 17.241,14.796 9.372,5.718 19.05,9.174 28.766,10.844 17.825,3.677 37.728,0.538 48.221,-4.439 6.956,-3.299 10.687,-5.196 16.734,-9.878 z" />
  </defs>

  <!-- Redonda -->
  <g class="fig-clickable" data-figura="redonda">
  <use href="#fig_redonda"
       transform="matrix(0.06418723,0,0,0.06418723,62.807451,10.914178)"
       fill="white" />
  </g>

  <!-- Blancas -->
  <g id="blanca_inkscape" class="fig-clickable" data-figura="blanca" transform="matrix(-1.4923813,0,0,-1.4923813,519.64129,449.40266)">
    <path d="m 237.68484,218.18353 c -3.39584,1.81997 -5.20528,5.11455 -4.09222,7.59296 1.18726,2.64364 5.26701,3.38972 9.10658,1.66537 3.83956,-1.72436 5.99216,-5.2694 4.8049,-7.91303 -1.18727,-2.64364 -5.26701,-3.38972 -9.10658,-1.66537 -0.23997,0.10777 -0.48628,0.19874 -0.71268,0.32007 z m 1.10973,2.24216 c 0.24123,-0.12433 0.48548,-0.21803 0.74119,-0.33287 3.27307,-1.46994 6.43421,-1.53907 7.05611,-0.15431 0.6219,1.38476 -1.52978,3.70162 -4.80285,5.17157 -3.27308,1.46994 -6.43422,1.53907 -7.05611,0.15431 -0.57332,-1.27658 1.21513,-3.37161 4.06166,-4.8387 z"
          fill="black" fill-rule="evenodd" />
    <path d="m 234.05234,224.51692 v 33.58757"
          fill="none" stroke="black" stroke-width="1.5" />
  </g>

  <g id="blanca_simple" class="fig-clickable" data-figura="blanca">
    <path d="m 64.934339,123.78964 c 5.067889,-2.71609 7.768263,-7.63286 6.107153,-11.33159 -1.771845,-3.94532 -7.860387,-5.05876 -13.59049,-2.48537 -5.730087,2.5734 -8.942587,7.86396 -7.170743,11.80926 1.77186,3.94532 7.860388,5.05875 13.59049,2.48537 0.358127,-0.16084 0.725715,-0.2966 1.06359,-0.47767 z m -1.65614,-3.34616 c -0.360007,0.18555 -0.724521,0.32539 -1.106138,0.49677 -4.884668,2.19371 -9.602295,2.29688 -10.530407,0.23029 -0.928111,-2.06659 2.283016,-5.52423 7.167684,-7.71795 4.884683,-2.19371 9.60231,-2.29688 10.530407,-0.23029 0.855612,1.90514 -1.813438,5.03172 -6.061546,7.22118 z"
          fill="black" fill-rule="evenodd" />
    <path d="M 70.355415,114.33781 V 64.212346"
          fill="none" stroke="black" stroke-width="2.23" />
  </g>

  <!-- Negras -->
  <g id="negra" class="fig-clickable" data-figura="negra" transform="matrix(-1.0535968,0,0,-1.0535968,352.89018,500.33753)">
    <path d="m 303.13715,299.65106 c -3.39584,1.81997 -5.20528,5.11455 -4.09222,7.59296 1.18726,2.64364 5.26701,3.38972 9.10658,1.66537 3.83956,-1.72436 5.99216,-5.2694 4.8049,-7.91303 -1.18727,-2.64364 -5.26701,-3.38972 -9.10658,-1.66537 -0.23997,0.10777 -0.48628,0.19874 -0.71268,0.32007 z" fill="black" fill-rule="evenodd" />
    <path d="m 299.50465,305.98445 v 33.58757" fill="none" stroke="black" stroke-width="1.5" />
  </g>

  <g id="negra1" class="fig-clickable" data-figura="negra" transform="matrix(-1.0535968,0,0,-1.0535968,403.80102,500.33753)">
    <path d="m 303.13715,299.65106 c -3.39584,1.81997 -5.20528,5.11455 -4.09222,7.59296 1.18726,2.64364 5.26701,3.38972 9.10658,1.66537 3.83956,-1.72436 5.99216,-5.2694 4.8049,-7.91303 -1.18727,-2.64364 -5.26701,-3.38972 -9.10658,-1.66537 -0.23997,0.10777 -0.48628,0.19874 -0.71268,0.32007 z" fill="black" fill-rule="evenodd" />
    <path d="m 299.50465,305.98445 v 33.58757" fill="none" stroke="black" stroke-width="1.5" />
  </g>

  <g id="negra2" class="fig-clickable" data-figura="negra" transform="matrix(-1.0535968,0,0,-1.0535968,454.71185,500.33753)">
    <path d="m 303.13715,299.65106 c -3.39584,1.81997 -5.20528,5.11455 -4.09222,7.59296 1.18726,2.64364 5.26701,3.38972 9.10658,1.66537 3.83956,-1.72436 5.99216,-5.2694 4.8049,-7.91303 -1.18727,-2.64364 -5.26701,-3.38972 -9.10658,-1.66537 -0.23997,0.10777 -0.48628,0.19874 -0.71268,0.32007 z" fill="black" fill-rule="evenodd" />
    <path d="m 299.50465,305.98445 v 33.58757" fill="none" stroke="black" stroke-width="1.5" />
  </g>

  <g id="negra3" class="fig-clickable" data-figura="negra" transform="matrix(-1.0535968,0,0,-1.0535968,505.62269,500.33753)">
    <path d="m 303.13715,299.65106 c -3.39584,1.81997 -5.20528,5.11455 -4.09222,7.59296 1.18726,2.64364 5.26701,3.38972 9.10658,1.66537 3.83956,-1.72436 5.99216,-5.2694 4.8049,-7.91303 -1.18727,-2.64364 -5.26701,-3.38972 -9.10658,-1.66537 -0.23997,0.10777 -0.48628,0.19874 -0.71268,0.32007 z" fill="black" fill-rule="evenodd" />
    <path d="m 299.50465,305.98445 v 33.58757" fill="none" stroke="black" stroke-width="1.5" />
  </g>

  <!-- Corcheas -->
  <g id="corchea" class="fig-clickable" data-figura="corchea" transform="matrix(-0.52631014,0,0,-0.6484712,295.38748,369.80534)">
    <path d="m 483.27303,219.83179 c -3.39584,1.81997 -5.20528,5.11455 -4.09222,7.59296 1.18726,2.64364 5.26701,3.38972 9.10658,1.66537 3.83956,-1.72436 5.99216,-5.2694 4.8049,-7.91303 -1.18727,-2.64364 -5.26701,-3.38972 -9.10658,-1.66537 -0.23997,0.10777 -0.48628,0.19874 -0.71268,0.32007 z" fill="black" />
    <path d="m 479.64053,226.16518 v 33.58757" fill="none" stroke="black" stroke-width="1.5" />
    <path d="m 528.88143,219.47819 c -3.39584,1.81997 -5.20528,5.11455 -4.09222,7.59296 1.18726,2.64364 5.26701,3.38972 9.10658,1.66537 3.83956,-1.72436 5.99216,-5.2694 4.8049,-7.91303 -1.18727,-2.64364 -5.26701,-3.38972 -9.10658,-1.66537 -0.23997,0.10777 -0.48628,0.19874 -0.71268,0.32007 z" fill="black" />
    <path d="m 525.24893,225.81158 v 33.58757" fill="none" stroke="black" stroke-width="1.5" />
    <rect y="256.51352" x="478.81485" height="4.3461943" width="47.211941" fill="black" />
  </g>

  <g id="corchea2" class="fig-clickable" data-figura="corchea" transform="matrix(-0.52631014,0,0,-0.6484712,346.60265,369.80534)">
    <path d="m 483.27303,219.83179 c -3.39584,1.81997 -5.20528,5.11455 -4.09222,7.59296 1.18726,2.64364 5.26701,3.38972 9.10658,1.66537 3.83956,-1.72436 5.99216,-5.2694 4.8049,-7.91303 -1.18727,-2.64364 -5.26701,-3.38972 -9.10658,-1.66537 -0.23997,0.10777 -0.48628,0.19874 -0.71268,0.32007 z" fill="black" />
    <path d="m 479.64053,226.16518 v 33.58757" fill="none" stroke="black" stroke-width="1.5" />
    <path d="m 528.88143,219.47819 c -3.39584,1.81997 -5.20528,5.11455 -4.09222,7.59296 1.18726,2.64364 5.26701,3.38972 9.10658,1.66537 3.83956,-1.72436 5.99216,-5.2694 4.8049,-7.91303 -1.18727,-2.64364 -5.26701,-3.38972 -9.10658,-1.66537 -0.23997,0.10777 -0.48628,0.19874 -0.71268,0.32007 z" fill="black" />
    <path d="m 525.24893,225.81158 v 33.58757" fill="none" stroke="black" stroke-width="1.5" />
    <rect y="256.51352" x="478.81485" height="4.3461943" width="47.211941" fill="black" />
  </g>

  <g id="corchea3" class="fig-clickable" data-figura="corchea" transform="matrix(-0.52631014,0,0,-0.6484712,396.94031,369.80534)">
    <path d="m 483.27303,219.83179 c -3.39584,1.81997 -5.20528,5.11455 -4.09222,7.59296 1.18726,2.64364 5.26701,3.38972 9.10658,1.66537 3.83956,-1.72436 5.99216,-5.2694 4.8049,-7.91303 -1.18727,-2.64364 -5.26701,-3.38972 -9.10658,-1.66537 -0.23997,0.10777 -0.48628,0.19874 -0.71268,0.32007 z" fill="black" />
    <path d="m 479.64053,226.16518 v 33.58757" fill="none" stroke="black" stroke-width="1.5" />
    <path d="m 528.88143,219.47819 c -3.39584,1.81997 -5.20528,5.11455 -4.09222,7.59296 1.18726,2.64364 5.26701,3.38972 9.10658,1.66537 3.83956,-1.72436 5.99216,-5.2694 4.8049,-7.91303 -1.18727,-2.64364 -5.26701,-3.38972 -9.10658,-1.66537 -0.23997,0.10777 -0.48628,0.19874 -0.71268,0.32007 z" fill="black" />
    <path d="m 525.24893,225.81158 v 33.58757" fill="none" stroke="black" stroke-width="1.5" />
    <rect y="256.51352" x="478.81485" height="4.3461943" width="47.211941" fill="black" />
  </g>

  <g id="corchea4" class="fig-clickable" data-figura="corchea" transform="matrix(-0.52631014,0,0,-0.6484712,448.15548,369.90636)">
    <path d="m 483.27303,219.83179 c -3.39584,1.81997 -5.20528,5.11455 -4.09222,7.59296 1.18726,2.64364 5.26701,3.38972 9.10658,1.66537 3.83956,-1.72436 5.99216,-5.2694 4.8049,-7.91303 -1.18727,-2.64364 -5.26701,-3.38972 -9.10658,-1.66537 -0.23997,0.10777 -0.48628,0.19874 -0.71268,0.32007 z" fill="black" />
    <path d="m 479.64053,226.16518 v 33.58757" fill="none" stroke="black" stroke-width="1.5" />
    <path d="m 528.88143,219.47819 c -3.39584,1.81997 -5.20528,5.11455 -4.09222,7.59296 1.18726,2.64364 5.26701,3.38972 9.10658,1.66537 3.83956,-1.72436 5.99216,-5.2694 4.8049,-7.91303 -1.18727,-2.64364 -5.26701,-3.38972 -9.10658,-1.66537 -0.23997,0.10777 -0.48628,0.19874 -0.71268,0.32007 z" fill="black" />
    <path d="m 525.24893,225.81158 v 33.58757" fill="none" stroke="black" stroke-width="1.5" />
    <rect y="256.51352" x="478.81485" height="4.3461943" width="47.211941" fill="black" />
  </g>

  <!-- Semicorcheas -->
  <g id="semi" class="fig-clickable" data-figura="semicorchea" transform="matrix(-0.3894,0,0,-0.3894,248.70,419.25)">
    <g transform="translate(216.24,95.29)"><path d="m 303.07,299.63 c -3.39,1.81 -5.20,5.11 -4.09,7.59 1.18,2.64 5.26,3.38 9.10,1.66 3.83,-1.72 5.99,-5.26 4.80,-7.91 -1.18,-2.64 -5.26,-3.38 -9.10,-1.66 -0.23,0.10 -0.48,0.19 -0.71,0.32 z" fill="black"/><path d="m 299.40,305.82 v 33.74" fill="none" stroke="black" stroke-width="1.5"/></g>
    <g transform="translate(249.78,95.18)"><path d="m 303.03,299.74 c -3.39,1.81 -5.20,5.11 -4.09,7.59 1.18,2.64 5.26,3.38 9.10,1.66 3.83,-1.72 5.99,-5.26 4.80,-7.91 -1.18,-2.64 -5.26,-3.38 -9.10,-1.66 -0.23,0.10 -0.48,0.19 -0.71,0.32 z" fill="black"/><path d="m 299.36,305.92 v 33.64" fill="none" stroke="black" stroke-width="1.5"/></g>
    <rect y="422.71" x="514.89" height="4.6" width="100.41" fill="black"/><rect y="431.51" x="514.89" height="4.6" width="100.78" fill="black"/>
    <g transform="translate(283.45,95.26)"><path d="m 303.03,299.74 c -3.39,1.81 -5.20,5.11 -4.09,7.59 1.18,2.64 5.26,3.38 9.10,1.66 3.83,-1.72 5.99,-5.26 4.80,-7.91 -1.18,-2.64 -5.26,-3.38 -9.10,-1.66 -0.23,0.10 -0.48,0.19 -0.71,0.32 z" fill="black"/><path d="m 299.36,305.92 v 33.64" fill="none" stroke="black" stroke-width="1.5"/></g>
    <g transform="translate(315.67,95.19)"><path d="m 303.03,299.74 c -3.39,1.81 -5.20,5.11 -4.09,7.59 1.18,2.64 5.26,3.38 9.10,1.66 3.83,-1.72 5.99,-5.26 4.80,-7.91 -1.18,-2.64 -5.26,-3.38 -9.10,-1.66 -0.23,0.10 -0.48,0.19 -0.71,0.32 z" fill="black"/><path d="m 299.36,305.92 v 33.64" fill="none" stroke="black" stroke-width="1.5"/></g>
  </g>

  <g id="semi1" class="fig-clickable" data-figura="semicorchea" transform="matrix(-0.3894,0,0,-0.3894,299.88,418.78)">
    <g transform="translate(216.24,95.29)"><path d="m 303.07,299.63 c -3.39,1.81 -5.20,5.11 -4.09,7.59 1.18,2.64 5.26,3.38 9.10,1.66 3.83,-1.72 5.99,-5.26 4.80,-7.91 -1.18,-2.64 -5.26,-3.38 -9.10,-1.66 -0.23,0.10 -0.48,0.19 -0.71,0.32 z" fill="black"/><path d="m 299.40,305.82 v 33.74" fill="none" stroke="black" stroke-width="1.5"/></g>
    <g transform="translate(249.78,95.18)"><path d="m 303.03,299.74 c -3.39,1.81 -5.20,5.11 -4.09,7.59 1.18,2.64 5.26,3.38 9.10,1.66 3.83,-1.72 5.99,-5.26 4.80,-7.91 -1.18,-2.64 -5.26,-3.38 -9.10,-1.66 -0.23,0.10 -0.48,0.19 -0.71,0.32 z" fill="black"/><path d="m 299.36,305.92 v 33.64" fill="none" stroke="black" stroke-width="1.5"/></g>
    <rect y="422.71" x="514.89" height="4.6" width="100.41" fill="black"/><rect y="431.51" x="514.89" height="4.6" width="100.78" fill="black"/>
    <g transform="translate(283.45,95.26)"><path d="m 303.03,299.74 c -3.39,1.81 -5.20,5.11 -4.09,7.59 1.18,2.64 5.26,3.38 9.10,1.66 3.83,-1.72 5.99,-5.26 4.80,-7.91 -1.18,-2.64 -5.26,-3.38 -9.10,-1.66 -0.23,0.10 -0.48,0.19 -0.71,0.32 z" fill="black"/><path d="m 299.36,305.92 v 33.64" fill="none" stroke="black" stroke-width="1.5"/></g>
    <g transform="translate(315.67,95.19)"><path d="m 303.03,299.74 c -3.39,1.81 -5.20,5.11 -4.09,7.59 1.18,2.64 5.26,3.38 9.10,1.66 3.83,-1.72 5.99,-5.26 4.80,-7.91 -1.18,-2.64 -5.26,-3.38 -9.10,-1.66 -0.23,0.10 -0.48,0.19 -0.71,0.32 z" fill="black"/><path d="m 299.36,305.92 v 33.64" fill="none" stroke="black" stroke-width="1.5"/></g>
  </g>

  <g id="semi2" class="fig-clickable" data-figura="semicorchea" transform="matrix(-0.3894,0,0,-0.3894,351.30,418.74)">
    <g transform="translate(216.24,95.29)"><path d="m 303.07,299.63 c -3.39,1.81 -5.20,5.11 -4.09,7.59 1.18,2.64 5.26,3.38 9.10,1.66 3.83,-1.72 5.99,-5.26 4.80,-7.91 -1.18,-2.64 -5.26,-3.38 -9.10,-1.66 -0.23,0.10 -0.48,0.19 -0.71,0.32 z" fill="black"/><path d="m 299.40,305.82 v 33.74" fill="none" stroke="black" stroke-width="1.5"/></g>
    <g transform="translate(249.78,95.18)"><path d="m 303.03,299.74 c -3.39,1.81 -5.20,5.11 -4.09,7.59 1.18,2.64 5.26,3.38 9.10,1.66 3.83,-1.72 5.99,-5.26 4.80,-7.91 -1.18,-2.64 -5.26,-3.38 -9.10,-1.66 -0.23,0.10 -0.48,0.19 -0.71,0.32 z" fill="black"/><path d="m 299.36,305.92 v 33.64" fill="none" stroke="black" stroke-width="1.5"/></g>
    <rect y="422.71" x="514.89" height="4.6" width="100.41" fill="black"/><rect y="431.51" x="514.89" height="4.6" width="100.78" fill="black"/>
    <g transform="translate(283.45,95.26)"><path d="m 303.03,299.74 c -3.39,1.81 -5.20,5.11 -4.09,7.59 1.18,2.64 5.26,3.38 9.10,1.66 3.83,-1.72 5.99,-5.26 4.80,-7.91 -1.18,-2.64 -5.26,-3.38 -9.10,-1.66 -0.23,0.10 -0.48,0.19 -0.71,0.32 z" fill="black"/><path d="m 299.36,305.92 v 33.64" fill="none" stroke="black" stroke-width="1.5"/></g>
    <g transform="translate(315.67,95.19)"><path d="m 303.03,299.74 c -3.39,1.81 -5.20,5.11 -4.09,7.59 1.18,2.64 5.26,3.38 9.10,1.66 3.83,-1.72 5.99,-5.26 4.80,-7.91 -1.18,-2.64 -5.26,-3.38 -9.10,-1.66 -0.23,0.10 -0.48,0.19 -0.71,0.32 z" fill="black"/><path d="m 299.36,305.92 v 33.64" fill="none" stroke="black" stroke-width="1.5"/></g>
  </g>

  <g id="semi3" class="fig-clickable" data-figura="semicorchea" transform="matrix(-0.3894,0,0,-0.3894,402.36,418.60)">
    <g transform="translate(216.24,95.29)"><path d="m 303.07,299.63 c -3.39,1.81 -5.20,5.11 -4.09,7.59 1.18,2.64 5.26,3.38 9.10,1.66 3.83,-1.72 5.99,-5.26 4.80,-7.91 -1.18,-2.64 -5.26,-3.38 -9.10,-1.66 -0.23,0.10 -0.48,0.19 -0.71,0.32 z" fill="black"/><path d="m 299.40,305.82 v 33.74" fill="none" stroke="black" stroke-width="1.5"/></g>
    <g transform="translate(249.78,95.18)"><path d="m 303.03,299.74 c -3.39,1.81 -5.20,5.11 -4.09,7.59 1.18,2.64 5.26,3.38 9.10,1.66 3.83,-1.72 5.99,-5.26 4.80,-7.91 -1.18,-2.64 -5.26,-3.38 -9.10,-1.66 -0.23,0.10 -0.48,0.19 -0.71,0.32 z" fill="black"/><path d="m 299.36,305.92 v 33.64" fill="none" stroke="black" stroke-width="1.5"/></g>
    <rect y="422.71" x="514.89" height="4.6" width="100.41" fill="black"/><rect y="431.51" x="514.89" height="4.6" width="100.78" fill="black"/>
    <g transform="translate(283.45,95.26)"><path d="m 303.03,299.74 c -3.39,1.81 -5.20,5.11 -4.09,7.59 1.18,2.64 5.26,3.38 9.10,1.66 3.83,-1.72 5.99,-5.26 4.80,-7.91 -1.18,-2.64 -5.26,-3.38 -9.10,-1.66 -0.23,0.10 -0.48,0.19 -0.71,0.32 z" fill="black"/><path d="m 299.36,305.92 v 33.64" fill="none" stroke="black" stroke-width="1.5"/></g>
    <g transform="translate(315.67,95.19)"><path d="m 303.03,299.74 c -3.39,1.81 -5.20,5.11 -4.09,7.59 1.18,2.64 5.26,3.38 9.10,1.66 3.83,-1.72 5.99,-5.26 4.80,-7.91 -1.18,-2.64 -5.26,-3.38 -9.10,-1.66 -0.23,0.10 -0.48,0.19 -0.71,0.32 z" fill="black"/><path d="m 299.36,305.92 v 33.64" fill="none" stroke="black" stroke-width="1.5"/></g>
  </g>

  <!-- Silencio de redonda -->
  <g id="redonda_silencio" transform="matrix(1.255, 0, 0, 1.255, 201.71, 15.54)">
    <path
      id="lineas_pentagrama"
      fill="none"
      stroke="black"
      stroke-width="0.3"
      d="M 42,11 H 2 M 2,20 h 40" />
    <path
      id="silencio_redonda"
      d="m 15.5,11 v 6 h 13 v -6"
      fill="black" />
  </g>

  <!-- Silencio de blanca -->
  <g id="blanca_silencio" transform="matrix(1.316, 0, 0, 1.316, 201.02, 70.26)">
    <path
      id="silencio_blanca"
      d="m 15.38,15.12 v 2.58 l 0.03,2.61 0.15,0.15 h 13.05 l 0.22,-0.22 v -2.58 -2.61 l -0.18,-0.18 h -13.05 z"
      fill="black" />
    <path
      id="lineas_pentagrama_blanca"
      fill="none"
      stroke="black"
      stroke-width="0.24"
      d="M 2.12,20.44 H 41.88 M 2.12,11.28 H 41.88" />
  </g>

  <!-- Silencio de negra -->
  <g id="negra_silencio" transform="translate(226, 144) scale(2.7)">
    <path
      id="path_negra"
      d="m -0.01,-1.23 c -0.13,0.05 -0.21,0.25 -0.15,0.39 0.01,0.02 0.21,0.25 0.41,0.52 0.45,0.51 0.53,0.63 0.63,0.87 0.39,0.81 0.18,1.85 -0.51,2.51 -0.05,0.07 -0.31,0.29 -0.55,0.47 -0.69,0.59 -1.01,0.93 -1.13,1.23 -0.04,0.07 -0.04,0.15 -0.04,0.27 -0.01,0.27 0,0.3 0.82,1.25 1.11,1.33 1.91,2.27 1.97,2.33 l 0.05,0.05 -0.07,-0.03 c -1.09,-0.45 -2.33,-0.67 -2.75,-0.47 -0.14,0.05 -0.22,0.14 -0.28,0.27 -0.16,0.34 -0.11,0.84 0.12,1.57 0.21,0.66 0.65,1.53 1.09,2.19 0.18,0.28 0.52,0.71 0.55,0.73 0.05,0.05 0.14,0.03 0.19,0 0.05,-0.07 0.05,-0.14 -0.05,-0.27 -0.41,-0.59 -0.61,-1.83 -0.37,-2.49 0.09,-0.29 0.21,-0.45 0.43,-0.55 0.57,-0.25 1.85,0.06 2.39,0.59 0.03,0.04 0.12,0.12 0.16,0.14 0.14,0.05 0.34,-0.01 0.39,-0.16 0.08,-0.14 0.03,-0.23 -0.14,-0.45 -0.33,-0.39 -1.35,-1.59 -1.49,-1.77 -0.36,-0.41 -0.52,-0.81 -0.55,-1.31 -0.01,-0.63 0.23,-1.31 0.71,-1.75 0.05,-0.07 0.31,-0.29 0.55,-0.47 0.73,-0.61 1.03,-0.95 1.15,-1.27 0.08,-0.25 0.04,-0.49 -0.13,-0.71 -0.06,-0.05 -0.75,-0.91 -1.57,-1.89 -1.11,-1.31 -1.51,-1.79 -1.57,-1.81 -0.08,-0.01 -0.18,-0.01 -0.26,0.02 z"
      fill="black" />
  </g>

  <!-- Silencio de corchea -->
  <g id="corchea_silencio" transform="translate(225, 200) scale(2.82)">
    <path
      id="path_corchea"
      d="m 0.05,-0.08 c -0.52,0.09 -0.91,0.45 -1.09,0.95 -0.03,0.16 -0.03,0.19 -0.03,0.41 0,0.3 0.01,0.46 0.16,0.69 0.19,0.39 0.61,0.71 1.09,0.83 0.5,0.14 1.33,0.02 2.29,-0.29 l 0.23,-0.08 -1.17,3.25 -1.15,3.24 c 0,0 0.03,0.02 0.1,0.06 0.11,0.07 0.31,0.13 0.45,0.13 0.23,0 0.53,-0.13 0.57,-0.25 0,-0.03 0.55,-1.93 1.23,-4.18 l 1.19,-4.12 -0.03,-0.05 c -0.09,-0.12 -0.29,-0.16 -0.41,-0.06 -0.03,0.03 -0.1,0.12 -0.14,0.18 -0.18,0.3 -0.63,0.83 -0.87,1.03 -0.21,0.18 -0.34,0.19 -0.53,0.12 -0.18,-0.09 -0.23,-0.19 -0.36,-0.73 -0.11,-0.53 -0.25,-0.77 -0.55,-0.97 -0.27,-0.17 -0.63,-0.23 -0.95,-0.15 z"
      fill="black" />
  </g>

  <!-- Silencio de semicorchea -->
  <g id="semi_silencio_limpio" transform="translate(208.2, 228.9)">
    <path
      id="path90_fixed"
      fill="black"
      d="m 21.0,18.2 c -0.8,0.1 -1.4,0.7 -1.7,1.5 -0.1,0.3 -0.1,0.3 -0.1,0.7 0,0.5 0,0.7 0.3,1.1 0.3,0.6 1.0,1.1 1.7,1.3 0.8,0.2 2.0,0.1 3.5,-0.4 0.2,-0.1 0.4,-0.2 0.4,-0.1 0,0 -1.4,4.7 -1.5,4.9 -0.2,0.4 -0.7,1.2 -1.2,1.6 -0.4,0.4 -0.7,0.5 -1.0,0.4 -0.3,-0.2 -0.4,-0.3 -0.6,-1.2 -0.2,-0.6 -0.3,-1.0 -0.5,-1.2 -0.7,-0.7 -1.8,-0.8 -2.7,-0.3 -0.4,0.3 -0.7,0.7 -0.9,1.2 -0.1,0.2 -0.1,0.3 -0.1,0.7 0,0.5 0,0.7 0.3,1.1 0.3,0.6 1.0,1.1 1.7,1.3 0.3,0.1 1.2,0.1 1.8,0 0.5,-0.1 1.1,-0.3 1.7,-0.4 0.3,-0.1 0.5,-0.2 0.5,-0.1 0,0 -3.1,10.2 -3.1,10.4 0,0 0.2,0.2 0.5,0.3 0.3,0.1 0.5,0.1 0.8,0 0.3,-0.1 0.5,-0.2 0.5,-0.3 0,-0.1 1.3,-4.9 2.8,-10.8 l 2.8,-10.7 -0.1,-0.1 c -0.1,-0.2 -0.4,-0.2 -0.6,-0.1 -0.1,0.1 -0.1,0.1 -0.5,0.6 -0.3,0.5 -0.8,1.1 -1.0,1.3 -0.4,0.3 -0.5,0.4 -0.9,0.2 -0.3,-0.2 -0.4,-0.3 -0.6,-1.2 -0.2,-0.9 -0.4,-1.3 -0.9,-1.6 -0.4,-0.3 -1.0,-0.4 -1.5,-0.3 z" />
  </g>

   <!-- paths -->
 <g id="paths" fill="none" stroke="black" stroke-linecap="round">
  
  <path d="m107.13 42.981-25.538 18.226" stroke-width="1.95" />
  <path d="m124.33 41.626 26.724 19.005" stroke-width="2.04" />

  <path d="m38.567 140.59 15.667-13.81" stroke-width="1.33" />
  <path d="m140.33 140.33 15.667-13.81" stroke-width="1.33" />
  <path d="m184.88 140.75-15.898-13.804" stroke-width="1.34" />
  <path d="m84.929 140.3-16.173-14.38" stroke-width="1.38" />

  <g stroke-width="0.97">
    <path d="m18.708 199.06 9.9685-11.645" />
    <path d="m69.419 199.08 9.9685-11.645" />
    <path d="m120.59 199.52 9.9685-11.645" />
    <path d="m170.64 200.03 9.9685-11.645" />
  </g>

  <g stroke-width="0.97">
    <path d="m92.878 199.22-9.9497-11.648" />
    <path d="m144.39 199.69-9.9496-11.648" />
    <path d="m194.86 199.43-9.9496-11.648" />
    <path d="m42.507 198.99-10.319-11.633" />
  </g>

  <g stroke-width="0.73">
    <path d="m10.686 246.43 4.3477-15.172" />
    <path d="m34.867 246.67 4.1647-15.483" />
    <path d="m61.335 246.99 4.1647-15.483" />
    <path d="m86.739 247.03 4.1647-15.483" />
    <path d="m111.92 246.62 4.1647-15.483" />
    <path d="m137.88 246.85 4.1647-15.483" />
    <path d="m162.58 246.87 4.1647-15.483" />
    <path d="m187.93 246.98 4.1647-15.483" />
  </g>

  <g stroke-width="0.77">
    <path d="m22.462 246.59-4.669-15.462" />
    <path d="m73.425 246.85-4.669-15.462" />
  </g>

  <g stroke-width="0.79">
    <path d="m47.033 246.82-4.93-15.655" />
    <path d="m98.904 247.28-4.93-15.655" />
    <path d="m123.94 246.76-4.93-15.655" />
    <path d="m149.42 247.26-4.93-15.655" />
    <path d="m174.81 247-4.93-15.655" />
    <path d="m200.62 247.09-4.93-15.655" />
  </g>
</g>

   


</svg>