<?xml version="1.0" encoding="UTF-8" standalone="no"?>
<!-- Created with Inkscape (http://www.inkscape.org/) -->

<svg
   width="210mm"
   height="297mm"
   viewBox="0 0 210 297"
   version="1.1"
   id="svg1"
   xml:space="preserve"
   inkscape:version="1.4.3 (0d15f75, 2025-12-25)"
   sodipodi:docname="teoria.svg"
   xmlns:inkscape="http://www.inkscape.org/namespaces/inkscape"
   xmlns:sodipodi="http://sodipodi.sourceforge.net/DTD/sodipodi-0.dtd"
   xmlns:xlink="http://www.w3.org/1999/xlink"
   xmlns="http://www.w3.org/2000/svg"
   xmlns:svg="http://www.w3.org/2000/svg"><sodipodi:namedview
     id="namedview1"
     pagecolor="#505050"
     bordercolor="#eeeeee"
     borderopacity="1"
     inkscape:showpageshadow="0"
     inkscape:pageopacity="0"
     inkscape:pagecheckerboard="0"
     inkscape:deskcolor="#505050"
     inkscape:document-units="mm"
     inkscape:zoom="2.3890636"
     inkscape:cx="574.49287"
     inkscape:cy="903.0735"
     inkscape:window-width="1920"
     inkscape:window-height="974"
     inkscape:window-x="-11"
     inkscape:window-y="-11"
     inkscape:window-maximized="1"
     inkscape:current-layer="layer1" /><defs
     id="defs1"><rect
       x="339.04676"
       y="264.21212"
       width="710.16552"
       height="236.72184"
       id="rect11" /><linearGradient
       id="swatch6"
       inkscape:swatch="solid"><stop
         style="stop-color:#ffffff;stop-opacity:1;"
         offset="0"
         id="stop6" /></linearGradient><rect
       x="61.555446"
       y="130.67033"
       width="168.46754"
       height="179.26674"
       id="rect1" /><linearGradient
       inkscape:collect="always"
       xlink:href="#swatch6"
       id="linearGradient6"
       x1="58.182621"
       y1="137.18405"
       x2="81.18066"
       y2="137.18405"
       gradientUnits="userSpaceOnUse" /><rect
       x="61.555447"
       y="130.67033"
       width="168.46754"
       height="179.26674"
       id="rect1-4" /><rect
       x="61.555447"
       y="130.67033"
       width="168.46754"
       height="179.26674"
       id="rect1-5" /><rect
       x="61.555447"
       y="130.67033"
       width="168.46754"
       height="179.26674"
       id="rect1-5-7" /><g
       id="E069-e16gbfi2"><path
         transform="scale(1,-1)"
         d="M200 250h125v-500h-125v500zM0 250h125v-500h-125v500z"
         id="path1-2" /></g><g
       id="E084-e16gbfi2"><path
         transform="scale(1,-1)"
         d="M20 -78c84 97 114 180 134 329h170c-13 -32 -82 -132 -99 -151l-84 -97c-33 -36 -59 -63 -80 -81h162v102l127 123v-225h57v-39h-57v-34c0 -43 19 -65 57 -65v-34h-244v36c48 0 60 26 60 70v27h-203v39z"
         id="path2" /></g><g
       id="E0A4-e16gbfi2"><path
         transform="scale(1,-1)"
         d="M0 -39c0 68 73 172 200 172c66 0 114 -37 114 -95c0 -84 -106 -171 -218 -171c-64 0 -96 30 -96 94z"
         id="path3" /></g><g
       id="E0A9-e16gbfi2"><path
         transform="scale(1,-1)"
         d="M0 -110c0 4 1 8 5 11l119 99l-119 100c-3 3 -5 8 -5 12c0 6 5 13 12 13c3 0 6 -1 8 -2l124 -105l126 105c2 1 5 2 7 2c6 0 13 -6 13 -14c0 -4 -2 -9 -5 -11l-119 -100l119 -99c3 -3 5 -7 5 -12c0 -6 -5 -14 -13 -14c-2 0 -5 1 -7 3l-126 105l-124 -105c-2 -2 -4 -3 -7 -3 c-8 0 -13 7 -13 15z"
         id="path4" /></g></defs><g
     inkscape:label="Capa 1"
     inkscape:groupmode="layer"
     id="layer1"><circle
       style="fill:#ffffff;fill-opacity:0;stroke:#ffffff;stroke-width:0.716646"
       id="path1"
       cx="145.99486"
       cy="151.50215"
       r="20.860926" /><text
       xml:space="preserve"
       transform="matrix(2.0699798,0,0,1.9872391,-103.21699,-189.08796)"
       id="4"
       style="font-style:normal;font-variant:normal;font-weight:normal;font-stretch:normal;font-size:12px;font-family:Arial;-inkscape-font-specification:'Arial, @wght=300,wdth=75';font-variant-ligatures:normal;font-variant-caps:normal;font-variant-numeric:normal;font-variant-east-asian:normal;font-variation-settings:'wdth' 75, 'wght' 300;writing-mode:lr-tb;direction:ltr;white-space:pre;shape-inside:url(#rect1);display:inline;fill:#ffffff;fill-opacity:1;stroke:#ffffff;stroke-width:0.790617;stroke-linecap:square;stroke-linejoin:round;stroke-dasharray:none;stroke-opacity:1"><tspan
         x="61.554688"
         y="141.47897"
         id="tspan3">4</tspan></text><text
       xml:space="preserve"
       transform="matrix(0.52922448,0,0,0.50807047,15.874685,8.8030841)"
       id="4-1"
       style="font-style:normal;font-variant:normal;font-weight:normal;font-stretch:normal;font-size:16.7318px;line-height:0.9;font-family:Arial;-inkscape-font-specification:'Arial, @wght=300,wdth=75';font-variant-ligatures:normal;font-variant-caps:normal;font-variant-numeric:normal;font-variant-east-asian:normal;font-variation-settings:'wdth' 75, 'wght' 300;writing-mode:lr-tb;direction:ltr;white-space:pre;shape-inside:url(#rect1-5);display:inline;fill:#ffffff;fill-opacity:1;stroke:#ffffff;stroke-width:0.790617;stroke-linecap:square;stroke-linejoin:round;stroke-dasharray:none;stroke-opacity:1"><tspan
         x="61.554688"
         y="142.8131"
         id="tspan4">cantidad de figuras
</tspan><tspan
         x="61.554688"
         y="157.87172"
         id="tspan5">por compas</tspan></text><text
       xml:space="preserve"
       transform="matrix(0.52922448,0,0,0.50807047,15.570814,36.904161)"
       id="4-1-4"
       style="font-style:normal;font-variant:normal;font-weight:normal;font-stretch:normal;font-size:16.7318px;line-height:0.9;font-family:Arial;-inkscape-font-specification:'Arial, @wght=300,wdth=75';font-variant-ligatures:normal;font-variant-caps:normal;font-variant-numeric:normal;font-variant-east-asian:normal;font-variation-settings:'wdth' 75, 'wght' 300;writing-mode:lr-tb;direction:ltr;white-space:pre;shape-inside:url(#rect1-5-7);display:inline;fill:#ffffff;fill-opacity:1;stroke:#ffffff;stroke-width:0.790617;stroke-linecap:square;stroke-linejoin:round;stroke-dasharray:none;stroke-opacity:1"><tspan
         x="61.554688"
         y="142.8131"
         id="tspan6">que figura representa </tspan></text><text
       xml:space="preserve"
       transform="matrix(2.0699798,0,0,1.9872391,-103.04039,-163.85435)"
       id="4-2"
       style="font-style:normal;font-variant:normal;font-weight:normal;font-stretch:normal;font-size:12px;font-family:Arial;-inkscape-font-specification:'Arial, @wght=300,wdth=75';font-variant-ligatures:normal;font-variant-caps:normal;font-variant-numeric:normal;font-variant-east-asian:normal;font-variation-settings:'wdth' 75, 'wght' 300;writing-mode:lr-tb;direction:ltr;white-space:pre;shape-inside:url(#rect1-4);display:inline;fill:#ffffff;fill-opacity:1;stroke:#ffffff;stroke-width:0.790617;stroke-linecap:square;stroke-linejoin:round;stroke-dasharray:none;stroke-opacity:1"><tspan
         x="61.554688"
         y="141.47897"
         id="tspan7">4</tspan></text><rect
       style="fill:#ffffff;fill-opacity:1;stroke:#ffffff;stroke-width:0.668018;stroke-linecap:square;stroke-linejoin:round;stroke-dasharray:none;stroke-opacity:1"
       id="rect10"
       width="29.692701"
       height="1.6196021"
       x="17.6136"
       y="95.623238" /><text
       xml:space="preserve"
       transform="scale(0.26458333)"
       id="text10"
       style="font-style:normal;font-variant:normal;font-weight:normal;font-stretch:normal;font-size:14.6667px;font-family:Arial;-inkscape-font-specification:'Arial, Normal';font-variant-ligatures:normal;font-variant-caps:normal;font-variant-numeric:normal;font-variant-east-asian:normal;writing-mode:lr-tb;direction:ltr;white-space:pre;shape-inside:url(#rect11);display:inline;fill:#ffffff;fill-opacity:1;stroke:#ffffff;stroke-width:3.77953;stroke-linecap:square;stroke-linejoin:round;stroke-dasharray:none;stroke-opacity:1" /><g
       fill="#222222"
       stroke="#222222"
       font-family="'Bebas Neue', sans-serif"
       id="g8"
       transform="matrix(0.26458333,0,0,0.26458333,22.225,146.13372)"
       style="display:inline"><g
         stroke-width="1"
         id="g5"
         transform="matrix(4.7130186,0,0,1,-113.25943,-445.27584)"
         style="fill:#ffffff;fill-opacity:0"><line
           x1="12"
           y1="26"
           x2="168"
           y2="26"
           id="line1"
           style="fill:#ffffff;fill-opacity:0;stroke:#ffffff;stroke-opacity:1" /><line
           x1="12"
           y1="35"
           x2="168"
           y2="35"
           id="line2"
           style="fill:#ffffff;fill-opacity:0;stroke:#ffffff;stroke-opacity:1" /><line
           x1="12"
           y1="44"
           x2="168"
           y2="44"
           id="line3"
           style="fill:#ffffff;fill-opacity:0;stroke:#ffffff;stroke-opacity:1" /><line
           x1="12"
           y1="53"
           x2="168"
           y2="53"
           id="line4"
           style="fill:#ffffff;fill-opacity:0;stroke:#ffffff;stroke-opacity:1" /><line
           x1="12"
           y1="62"
           x2="168"
           y2="62"
           id="line5"
           style="fill:#ffffff;fill-opacity:1;stroke:#ffffff;stroke-width:0.999309;stroke-dasharray:none;stroke-opacity:1" /></g><line
         x1="126.85071"
         y1="-418.79691"
         x2="126.85071"
         y2="-382.79691"
         stroke-width="2.2"
         id="line7"
         style="stroke:#ffffff;stroke-width:2.19969;stroke-dasharray:none;stroke-opacity:1" /><line
         x1="676.7796"
         y1="-418.79691"
         x2="676.7796"
         y2="-382.79691"
         stroke-width="2.2"
         id="line7-5"
         style="display:inline;stroke:#ffffff;stroke-width:2.19969;stroke-dasharray:none;stroke-opacity:1" /><line
         x1="-56.458923"
         y1="-418.79691"
         x2="-56.458923"
         y2="-382.79691"
         stroke-width="2.2"
         id="line7-5-3"
         style="display:inline;stroke:#ffffff;stroke-width:2.19969;stroke-dasharray:none;stroke-opacity:1" /><line
         x1="310.16034"
         y1="-418.79691"
         x2="310.16034"
         y2="-382.79691"
         stroke-width="2.2"
         id="line7-5-9"
         style="display:inline;stroke:#ffffff;stroke-width:2.19969;stroke-dasharray:none;stroke-opacity:1" /><line
         x1="493.46997"
         y1="-418.79691"
         x2="493.46997"
         y2="-382.79691"
         stroke-width="2.2"
         id="line7-5-9-4"
         style="display:inline;stroke:#ffffff;stroke-width:2.19969;stroke-dasharray:none;stroke-opacity:1" /></g><rect
       style="fill:#ffffff;fill-opacity:1;stroke:#ffffff;stroke-width:0.580314;stroke-linecap:square;stroke-linejoin:bevel;stroke-dasharray:none;stroke-opacity:1"
       id="rect14"
       width="0.3149285"
       height="41.662849"
       x="145.77521"
       y="130.621" /><circle
       style="fill:#ffffff;fill-opacity:0;stroke:#ffffff;stroke-width:0.716646"
       id="path1-8"
       cx="146.51669"
       cy="204.119"
       r="20.860926" /><rect
       style="fill:#ffffff;fill-opacity:1;stroke:#ffffff;stroke-width:0.580314;stroke-linecap:square;stroke-linejoin:bevel;stroke-dasharray:none;stroke-opacity:1"
       id="rect14-7"
       width="0.3149285"
       height="41.662849"
       x="146.29704"
       y="183.23785" /><rect
       style="fill:#ffffff;fill-opacity:1;stroke:#ffffff;stroke-width:0.580314;stroke-linecap:square;stroke-linejoin:bevel;stroke-dasharray:none;stroke-opacity:1"
       id="rect14-7-6"
       width="0.3149285"
       height="41.662849"
       x="-204.66722"
       y="125.92471"
       transform="rotate(-90)" /><circle
       style="fill:#ffffff;fill-opacity:0;stroke:#ffffff;stroke-width:0.716646"
       id="path1-8-6"
       cx="146.65154"
       cy="253.63435"
       r="20.860926" /><rect
       style="fill:#ffffff;fill-opacity:1;stroke:#ffffff;stroke-width:0.580314;stroke-linecap:square;stroke-linejoin:bevel;stroke-dasharray:none;stroke-opacity:1"
       id="rect14-7-0"
       width="0.3149285"
       height="41.662849"
       x="146.43188"
       y="232.7532" /><rect
       style="fill:#ffffff;fill-opacity:1;stroke:#ffffff;stroke-width:0.580314;stroke-linecap:square;stroke-linejoin:bevel;stroke-dasharray:none;stroke-opacity:1"
       id="rect14-7-6-2"
       width="0.3149285"
       height="41.662849"
       x="-254.18257"
       y="126.05956"
       transform="rotate(-90)" /><rect
       style="fill:#ffffff;fill-opacity:1;stroke:#ffffff;stroke-width:0.580314;stroke-linecap:square;stroke-linejoin:bevel;stroke-dasharray:none;stroke-opacity:1"
       id="rect14-7-6-2-0"
       width="0.3149285"
       height="41.662849"
       x="-76.13678"
       y="262.47552"
       transform="rotate(-45)" /><rect
       style="fill:#ffffff;fill-opacity:1;stroke:#ffffff;stroke-width:0.583107;stroke-linecap:square;stroke-linejoin:bevel;stroke-dasharray:none;stroke-opacity:1"
       id="rect14-7-6-2-0-1"
       width="0.31644469"
       height="41.863434"
       x="-283.8634"
       y="55.822803"
       transform="matrix(-0.71052371,-0.70367326,-0.71052371,0.70367326,0,0)" /></g><style
     type="text/css"
     id="style4">#e16gbfi2 g.ending, #e16gbfi2 g.fing, #e16gbfi2 g.reh, #e16gbfi2 g.tempo {font-weight:bold;}#e16gbfi2 g.dir, #e16gbfi2 g.dynam, #e16gbfi2 g.mNum {font-style:italic;}#e16gbfi2 g.label {font-weight:normal;}#e16gbfi2 ellipse, #e16gbfi2 path, #e16gbfi2 polygon, #e16gbfi2 polyline, #e16gbfi2 rect {stroke:currentColor}</style></svg>
