<svg xmlns="http://www.w3.org/2000/svg" width="200" height="220" viewBox="0 0 200 220">
  <g fill="#222" stroke="#222" font-family="'Bebas Neue', sans-serif">
    <text x="14" y="16" stroke="none" font-size="15" letter-spacing="1.5">RIDE</text>
    <g stroke-width="1"><line x1="12" y1="41" x2="168" y2="41"/><line x1="12" y1="50" x2="168" y2="50"/><line x1="12" y1="59" x2="168" y2="59"/><line x1="12" y1="68" x2="168" y2="68"/><line x1="12" y1="77" x2="168" y2="77"/></g>
    <line x1="12" y1="41" x2="12" y2="77" stroke-width="2.2"/><line x1="168" y1="41" x2="168" y2="77" stroke-width="2.2"/>
    <g stroke-width="2" stroke-linecap="round"><line x1="108" y1="35" x2="116" y2="43"/><line x1="116" y1="35" x2="108" y2="43"/></g>
    <line x1="116" y1="35" x2="116" y2="8" stroke-width="1.5"/>

    <text x="14" y="121" stroke="none" font-size="15" letter-spacing="1.5">CAMPANA</text>
    <g stroke-width="1"><line x1="12" y1="131" x2="168" y2="131"/><line x1="12" y1="140" x2="168" y2="140"/><line x1="12" y1="149" x2="168" y2="149"/><line x1="12" y1="158" x2="168" y2="158"/><line x1="12" y1="167" x2="168" y2="167"/></g>
    <line x1="12" y1="131" x2="12" y2="167" stroke-width="2.2"/><line x1="168" y1="131" x2="168" y2="167" stroke-width="2.2"/>
    <polygon points="112,127 117.6,131 112,135 106.4,131" fill="none" stroke-width="1.6"/>
    <line x1="117.6" y1="127" x2="117.6" y2="100" stroke-width="1.5"/>
  </g>
</svg>
