<svg xmlns="http://www.w3.org/2000/svg" xmlns:xlink="http://www.w3.org/1999/xlink" width="2400px" height="341px" version="1.1" overflow="visible" id="k6kavxu">
   <defs>
      <g id="E069-k6kavxu">
         <path transform="scale(1,-1)" d="M200 250h125v-500h-125v500zM0 250h125v-500h-125v500z" />
      </g>
      <g id="E084-k6kavxu">
         <path transform="scale(1,-1)" d="M20 -78c84 97 114 180 134 329h170c-13 -32 -82 -132 -99 -151l-84 -97c-33 -36 -59 -63 -80 -81h162v102l127 123v-225h57v-39h-57v-34c0 -43 19 -65 57 -65v-34h-244v36c48 0 60 26 60 70v27h-203v39z" />
      </g>
      <g id="E0A4-k6kavxu">
         <path transform="scale(1,-1)" d="M0 -39c0 68 73 172 200 172c66 0 114 -37 114 -95c0 -84 -106 -171 -218 -171c-64 0 -96 30 -96 94z" />
      </g>
      <g id="E0A9-k6kavxu">
         <path transform="scale(1,-1)" d="M0 -110c0 4 1 8 5 11l119 99l-119 100c-3 3 -5 8 -5 12c0 6 5 13 12 13c3 0 6 -1 8 -2l124 -105l126 105c2 1 5 2 7 2c6 0 13 -6 13 -14c0 -4 -2 -9 -5 -11l-119 -100l119 -99c3 -3 5 -7 5 -12c0 -6 -5 -14 -13 -14c-2 0 -5 1 -7 3l-126 105l-124 -105c-2 -2 -4 -3 -7 -3 c-8 0 -13 7 -13 15z" />
      </g>
      <g id="E4A1-k6kavxu">
         <path transform="scale(1,-1)" d="M0 -236v33l252 86l-252 84v33l347 -117z" />
      </g>
      <g id="E26A-k6kavxu">
         <path transform="scale(1,-1)" d="M163 -235v-11c0 -3 -1 -4 -1 -4h-2c-108 62 -160 150 -160 250s52 188 160 250h2s1 -1 1 -4v-11s0 -9 -3 -10c-78 -45 -110 -110 -110 -225s32 -180 110 -225c3 -1 3 -7 3 -10z" />
      </g>
      <g id="E26B-k6kavxu">
         <path transform="scale(1,-1)" d="M0 -235c0 3 0 9 3 10c78 45 110 110 110 225s-32 180 -110 225c-3 1 -3 10 -3 10v11c0 3 1 4 1 4h2c108 -62 160 -150 160 -250s-52 -188 -160 -250h-2s-1 1 -1 4v11z" />
      </g>
   </defs>
   <style type="text/css">#k6kavxu g.ending, #k6kavxu g.fing, #k6kavxu g.reh, #k6kavxu g.tempo {font-weight:bold;}#k6kavxu g.dir, #k6kavxu g.dynam, #k6kavxu g.mNum {font-style:italic;}#k6kavxu g.label {font-weight:normal;}#k6kavxu ellipse, #k6kavxu path, #k6kavxu polygon, #k6kavxu polyline, #k6kavxu rect {stroke:currentColor}</style>
   <svg class="definition-scale" color="black" font-family="Times, serif" viewBox="0 0 24000 3410">
      <g class="page-margin" transform="translate(500, 500)">
         <g id="u36fn7f" class="mdiv pageMilestone" />
         <g id="v1y11mfi" class="score pageMilestone" />
         <g id="pi5qkmx" class="system">
            <g id="x16hjzia" class="section systemMilestone" />
            <g id="u1od6naq" class="section systemMilestone" />
            <g id="nx5yy3g" class="measure">
               <g id="w12on1i1" class="staff">
                  <path d="M1578 1157 L7039 1157" stroke-width="13" />
                  <path d="M1578 1337 L7039 1337" stroke-width="13" />
                  <path d="M1578 1517 L7039 1517" stroke-width="13" />
                  <path d="M1578 1697 L7039 1697" stroke-width="13" />
                  <path d="M1578 1877 L7039 1877" stroke-width="13" />
                  <g id="him2tks" class="clef">
                     <use xlink:href="#E069-k6kavxu" transform="translate(1668, 1517) scale(0.72, 0.72)" />
                  </g>
                  <g id="i1t02qd0" class="keySig" />
                  <g id="j12xim7s" class="meterSig">
                     <use xlink:href="#E084-k6kavxu" transform="translate(2068, 1337) scale(0.72, 0.72)" />
                     <use xlink:href="#E084-k6kavxu" transform="translate(2068, 1697) scale(0.72, 0.72)" />
                  </g>
                  <g id="crpackh" class="layer">
                     <g id="dpbz35e" class="beam">
                        <polygon points="2848,617 3320,617 3320,707 2848,707" />
                        <g id="f2dl8jq" class="chord">
                           <g id="q1hhrfvj" class="stem">
                              <path d="M2857 1759 L2857 635" stroke-width="18" />
                           </g>
                           <g id="e1g7f2om" class="note">
                              <g class="notehead">
                                 <use xlink:href="#E0A4-k6kavxu" transform="translate(2640, 1787) scale(0.72, 0.72)" />
                              </g>
                           </g>
                           <g id="g14l5wh7" class="note">
                              <g class="notehead">
                                 <use xlink:href="#E0A9-k6kavxu" transform="translate(2658, 1067) scale(0.72, 0.72)" />
                              </g>
                           </g>
                        </g>
                        <g id="hunk1uf" class="note">
                           <g class="notehead">
                              <use xlink:href="#E0A9-k6kavxu" transform="translate(3112, 1067) scale(0.72, 0.72)" />
                           </g>
                           <g id="rfzkqeb" class="stem">
                              <path d="M3311 988 L3311 635" stroke-width="18" />
                           </g>
                        </g>
                     </g>
                     <g id="ip6s56l" class="beam">
                        <polygon points="3793,482 4715,482 4715,572 3793,572" />
                        <polygon points="4256,617 4715,617 4715,707 4256,707" />
                        <g id="ka8p6j0" class="chord">
                           <g id="s1gmera5" class="stem">
                              <path d="M3802 1399 L3802 500" stroke-width="18" />
                           </g>
                           <g id="luxh0ta" class="artic">
                              <use xlink:href="#E4A1-k6kavxu" transform="translate(3574, 1644.0) scale(0.72, 0.72)" />
                           </g>
                           <g id="jj2if7s" class="note">
                              <g class="notehead">
                                 <use xlink:href="#E0A4-k6kavxu" transform="translate(3585, 1427) scale(0.72, 0.72)" />
                              </g>
                           </g>
                           <g id="m1j0i3we" class="note">
                              <g class="notehead">
                                 <use xlink:href="#E0A9-k6kavxu" transform="translate(3603, 1067) scale(0.72, 0.72)" />
                              </g>
                           </g>
                        </g>
                        <g id="n1qsq2oj" class="note">
                           <g class="notehead">
                              <use xlink:href="#E0A9-k6kavxu" transform="translate(4057, 1067) scale(0.72, 0.72)" />
                           </g>
                           <g id="tk7zrv0" class="stem">
                              <path d="M4256 988 L4256 500" stroke-width="18" />
                           </g>
                        </g>
                        <g id="ox72hrm" class="note">
                           <g class="notehead">
                              <use xlink:href="#E0A4-k6kavxu" transform="translate(4489, 1427) scale(0.72, 0.72)" />
                              <use xlink:href="#E26A-k6kavxu" transform="translate(4376, 1427) scale(0.72, 0.72)" />
                              <use xlink:href="#E26B-k6kavxu" transform="translate(4715, 1427) scale(0.72, 0.72)" />
                           </g>
                           <g id="u1hie0qm" class="stem">
                              <path d="M4706 1399 L4706 500" stroke-width="18" />
                           </g>
                        </g>
                     </g>
                     <g id="pehtasz" class="beam">
                        <polygon points="5152,617 5643,617 5643,707 5152,707" />
                        <g id="r1qnbikm" class="chord">
                           <g id="vxyweri" class="stem">
                              <path d="M5161 1759 L5161 635" stroke-width="18" />
                           </g>
                           <g id="qujfwe8" class="note">
                              <g class="notehead">
                                 <use xlink:href="#E0A4-k6kavxu" transform="translate(4944, 1787) scale(0.72, 0.72)" />
                              </g>
                           </g>
                           <g id="susjgz6" class="note">
                              <g class="notehead">
                                 <use xlink:href="#E0A9-k6kavxu" transform="translate(4962, 1067) scale(0.72, 0.72)" />
                              </g>
                           </g>
                        </g>
                        <g id="u1dntru3" class="chord">
                           <g id="w432ae5" class="stem">
                              <path d="M5634 1759 L5634 635" stroke-width="18" />
                           </g>
                           <g id="t9jdnf4" class="note">
                              <g class="notehead">
                                 <use xlink:href="#E0A4-k6kavxu" transform="translate(5417, 1787) scale(0.72, 0.72)" />
                              </g>
                           </g>
                           <g id="v1wuq30j" class="note">
                              <g class="notehead">
                                 <use xlink:href="#E0A9-k6kavxu" transform="translate(5435, 1067) scale(0.72, 0.72)" />
                              </g>
                           </g>
                        </g>
                     </g>
                     <g id="w1gsjyco" class="beam">
                        <polygon points="6097,482 6761,482 6761,572 6097,572" />
                        <polygon points="6097,617 6438,617 6438,707 6097,707" />
                        <g id="y1ty92as" class="chord">
                           <g id="x6zeoxz" class="stem">
                              <path d="M6106 1399 L6106 500" stroke-width="18" />
                           </g>
                           <g id="z1qff3tp" class="artic">
                              <use xlink:href="#E4A1-k6kavxu" transform="translate(5878, 1644.0) scale(0.72, 0.72)" />
                           </g>
                           <g id="xu9h4o0" class="note">
                              <g class="notehead">
                                 <use xlink:href="#E0A4-k6kavxu" transform="translate(5889, 1427) scale(0.72, 0.72)" />
                              </g>
                           </g>
                           <g id="a19w2e8b" class="note">
                              <g class="notehead">
                                 <use xlink:href="#E0A9-k6kavxu" transform="translate(5907, 1067) scale(0.72, 0.72)" />
                              </g>
                           </g>
                        </g>
                        <g id="b1macme6" class="note">
                           <g class="notehead">
                              <use xlink:href="#E0A4-k6kavxu" transform="translate(6221, 1787) scale(0.72, 0.72)" />
                           </g>
                           <g id="y1qzvhp" class="stem">
                              <path d="M6438 1759 L6438 500" stroke-width="18" />
                           </g>
                        </g>
                        <g id="c4dk1oo" class="note">
                           <g class="notehead">
                              <use xlink:href="#E0A9-k6kavxu" transform="translate(6553, 1067) scale(0.72, 0.72)" />
                           </g>
                           <g id="z2ari60" class="stem">
                              <path d="M6752 988 L6752 500" stroke-width="18" />
                           </g>
                        </g>
                     </g>
                  </g>
               </g>
               <g id="vg6fei3" class="barLine">
                  <path d="M7026 1157 L7026 1877" stroke-width="27" />
               </g>
            </g>
            <g id="daizb1i" class="measure">
               <g id="mkpx029" class="staff">
                  <path d="M7039 1157 L12489 1157" stroke-width="13" />
                  <path d="M7039 1337 L12489 1337" stroke-width="13" />
                  <path d="M7039 1517 L12489 1517" stroke-width="13" />
                  <path d="M7039 1697 L12489 1697" stroke-width="13" />
                  <path d="M7039 1877 L12489 1877" stroke-width="13" />
                  <g id="n1nha7k" class="layer">
                     <g id="o1c16qim" class="beam">
                        <polygon points="7437,482 8360,482 8360,572 7437,572" />
                        <polygon points="7437,617 7896,617 7896,707 7437,707" />
                        <g id="qaifp6b" class="chord">
                           <g id="a143nw5y" class="stem">
                              <path d="M7446 1759 L7446 500" stroke-width="18" />
                           </g>
                           <g id="p1p72533" class="note">
                              <g class="notehead">
                                 <use xlink:href="#E0A4-k6kavxu" transform="translate(7229, 1787) scale(0.72, 0.72)" />
                              </g>
                           </g>
                           <g id="rxp8c1n" class="note">
                              <g class="notehead">
                                 <use xlink:href="#E0A9-k6kavxu" transform="translate(7247, 1067) scale(0.72, 0.72)" />
                              </g>
                           </g>
                        </g>
                        <g id="s10olkox" class="note">
                           <g class="notehead">
                              <use xlink:href="#E0A4-k6kavxu" transform="translate(7679, 1427) scale(0.72, 0.72)" />
                              <use xlink:href="#E26A-k6kavxu" transform="translate(7566, 1427) scale(0.72, 0.72)" />
                              <use xlink:href="#E26B-k6kavxu" transform="translate(7905, 1427) scale(0.72, 0.72)" />
                           </g>
                           <g id="b14rk0a8" class="stem">
                              <path d="M7896 1399 L7896 500" stroke-width="18" />
                           </g>
                        </g>
                        <g id="u1kakpap" class="chord">
                           <g id="c1wkmtf4" class="stem">
                              <path d="M8351 1759 L8351 500" stroke-width="18" />
                           </g>
                           <g id="t1l9etdv" class="note">
                              <g class="notehead">
                                 <use xlink:href="#E0A4-k6kavxu" transform="translate(8134, 1787) scale(0.72, 0.72)" />
                              </g>
                           </g>
                           <g id="vskrf1v" class="note">
                              <g class="notehead">
                                 <use xlink:href="#E0A9-k6kavxu" transform="translate(8152, 1067) scale(0.72, 0.72)" />
                              </g>
                           </g>
                        </g>
                     </g>
                     <g id="wsqhue2" class="beam">
                        <polygon points="8815,482 9737,482 9737,572 8815,572" />
                        <polygon points="9278,617 9737,617 9737,707 9278,707" />
                        <g id="y1pnr9zg" class="chord">
                           <g id="d1q1fris" class="stem">
                              <path d="M8824 1399 L8824 500" stroke-width="18" />
                           </g>
                           <g id="z1kvlb22" class="artic">
                              <use xlink:href="#E4A1-k6kavxu" transform="translate(8596, 1644.0) scale(0.72, 0.72)" />
                           </g>
                           <g id="x11idh6q" class="note">
                              <g class="notehead">
                                 <use xlink:href="#E0A4-k6kavxu" transform="translate(8607, 1427) scale(0.72, 0.72)" />
                              </g>
                           </g>
                           <g id="a1u4e6dp" class="note">
                              <g class="notehead">
                                 <use xlink:href="#E0A9-k6kavxu" transform="translate(8625, 1067) scale(0.72, 0.72)" />
                              </g>
                           </g>
                        </g>
                        <g id="b7u66jy" class="note">
                           <g class="notehead">
                              <use xlink:href="#E0A9-k6kavxu" transform="translate(9079, 1067) scale(0.72, 0.72)" />
                           </g>
                           <g id="esy6rn1" class="stem">
                              <path d="M9278 988 L9278 500" stroke-width="18" />
                           </g>
                        </g>
                        <g id="c18j7fqu" class="note">
                           <g class="notehead">
                              <use xlink:href="#E0A4-k6kavxu" transform="translate(9511, 1427) scale(0.72, 0.72)" />
                              <use xlink:href="#E26A-k6kavxu" transform="translate(9398, 1427) scale(0.72, 0.72)" />
                              <use xlink:href="#E26B-k6kavxu" transform="translate(9737, 1427) scale(0.72, 0.72)" />
                           </g>
                           <g id="f1cpdin8" class="stem">
                              <path d="M9728 1399 L9728 500" stroke-width="18" />
                           </g>
                        </g>
                     </g>
                     <g id="dh7fw6t" class="beam">
                        <polygon points="10174,482 10837,482 10837,572 10174,572" />
                        <polygon points="10174,617 10515,617 10515,707 10174,707" />
                        <g id="f18yqgtl" class="chord">
                           <g id="g1uoyvw4" class="stem">
                              <path d="M10183 1759 L10183 500" stroke-width="18" />
                           </g>
                           <g id="e40f8zw" class="note">
                              <g class="notehead">
                                 <use xlink:href="#E0A4-k6kavxu" transform="translate(9966, 1787) scale(0.72, 0.72)" />
                              </g>
                           </g>
                           <g id="g381apy" class="note">
                              <g class="notehead">
                                 <use xlink:href="#E0A9-k6kavxu" transform="translate(9984, 1067) scale(0.72, 0.72)" />
                              </g>
                           </g>
                        </g>
                        <g id="h2p2l6i" class="note">
                           <g class="notehead">
                              <use xlink:href="#E0A4-k6kavxu" transform="translate(10298, 1787) scale(0.72, 0.72)" />
                           </g>
                           <g id="h1vq5k91" class="stem">
                              <path d="M10515 1759 L10515 500" stroke-width="18" />
                           </g>
                        </g>
                        <g id="i9pndl7" class="note">
                           <g class="notehead">
                              <use xlink:href="#E0A9-k6kavxu" transform="translate(10629, 1067) scale(0.72, 0.72)" />
                           </g>
                           <g id="iscf4vg" class="stem">
                              <path d="M10828 988 L10828 500" stroke-width="18" />
                           </g>
                        </g>
                     </g>
                     <g id="j1qr0qqi" class="beam">
                        <polygon points="11310,482 12232,482 12232,572 11310,572" />
                        <polygon points="11774,617 12232,617 12232,707 11774,707" />
                        <g id="l189nrp8" class="chord">
                           <g id="jogrp9t" class="stem">
                              <path d="M11319 1399 L11319 500" stroke-width="18" />
                           </g>
                           <g id="mybr5qf" class="artic">
                              <use xlink:href="#E4A1-k6kavxu" transform="translate(11091, 1644.0) scale(0.72, 0.72)" />
                           </g>
                           <g id="k1a40aud" class="note">
                              <g class="notehead">
                                 <use xlink:href="#E0A4-k6kavxu" transform="translate(11102, 1427) scale(0.72, 0.72)" />
                              </g>
                           </g>
                           <g id="n1lx8ltm" class="note">
                              <g class="notehead">
                                 <use xlink:href="#E0A9-k6kavxu" transform="translate(11120, 1067) scale(0.72, 0.72)" />
                              </g>
                           </g>
                        </g>
                        <g id="o1vpcvkc" class="note">
                           <g class="notehead">
                              <use xlink:href="#E0A9-k6kavxu" transform="translate(11575, 1067) scale(0.72, 0.72)" />
                           </g>
                           <g id="k1axoalf" class="stem">
                              <path d="M11774 988 L11774 500" stroke-width="18" />
                           </g>
                        </g>
                        <g id="pw1i4dp" class="note">
                           <g class="notehead">
                              <use xlink:href="#E0A4-k6kavxu" transform="translate(12006, 1427) scale(0.72, 0.72)" />
                              <use xlink:href="#E26A-k6kavxu" transform="translate(11893, 1427) scale(0.72, 0.72)" />
                              <use xlink:href="#E26B-k6kavxu" transform="translate(12232, 1427) scale(0.72, 0.72)" />
                           </g>
                           <g id="l1229qlj" class="stem">
                              <path d="M12223 1399 L12223 500" stroke-width="18" />
                           </g>
                        </g>
                     </g>
                  </g>
               </g>
               <g id="l28cq4o" class="barLine">
                  <path d="M12476 1157 L12476 1877" stroke-width="27" />
               </g>
            </g>
            <g id="q73fouj" class="measure">
               <g id="z1n0gojb" class="staff">
                  <path d="M12489 1157 L18048 1157" stroke-width="13" />
                  <path d="M12489 1337 L18048 1337" stroke-width="13" />
                  <path d="M12489 1517 L18048 1517" stroke-width="13" />
                  <path d="M12489 1697 L18048 1697" stroke-width="13" />
                  <path d="M12489 1877 L18048 1877" stroke-width="13" />
                  <g id="ardogwq" class="layer">
                     <g id="b1gpbd8j" class="beam">
                        <polygon points="12887,482 13883,482 13883,572 12887,572" />
                        <polygon points="12887,617 13227,617 13227,707 12887,707" />
                        <polygon points="13227,617 13541,617 13541,707 13227,707" />
                        <polygon points="13541,617 13883,617 13883,707 13541,707" />
                        <g id="dylera0" class="chord">
                           <g id="m172d7ko" class="stem">
                              <path d="M12896 1759 L12896 500" stroke-width="18" />
                           </g>
                           <g id="c1ukfbwn" class="note">
                              <g class="notehead">
                                 <use xlink:href="#E0A4-k6kavxu" transform="translate(12679, 1787) scale(0.72, 0.72)" />
                              </g>
                           </g>
                           <g id="e1t5vzi2" class="note">
                              <g class="notehead">
                                 <use xlink:href="#E0A9-k6kavxu" transform="translate(12697, 1067) scale(0.72, 0.72)" />
                              </g>
                           </g>
                        </g>
                        <g id="fqw7mst" class="note">
                           <g class="notehead">
                              <use xlink:href="#E0A4-k6kavxu" transform="translate(13010, 1787) scale(0.72, 0.72)" />
                           </g>
                           <g id="n4zf400" class="stem">
                              <path d="M13227 1759 L13227 500" stroke-width="18" />
                           </g>
                        </g>
                        <g id="g1y3noqh" class="note">
                           <g class="notehead">
                              <use xlink:href="#E0A9-k6kavxu" transform="translate(13342, 1067) scale(0.72, 0.72)" />
                           </g>
                           <g id="o1lipx2v" class="stem">
                              <path d="M13541 988 L13541 500" stroke-width="18" />
                           </g>
                        </g>
                        <g id="h1t6gxgk" class="note">
                           <g class="notehead">
                              <use xlink:href="#E0A4-k6kavxu" transform="translate(13657, 1787) scale(0.72, 0.72)" />
                           </g>
                           <g id="p1815wul" class="stem">
                              <path d="M13874 1759 L13874 500" stroke-width="18" />
                           </g>
                        </g>
                     </g>
                     <g id="ikm6qfb" class="beam">
                        <polygon points="14197,482 15311,482 15311,572 14197,572" />
                        <polygon points="14197,617 14538,617 14538,707 14197,707" />
                        <polygon points="14538,617 14852,617 14852,707 14538,707" />
                        <polygon points="14852,617 15311,617 15311,707 14852,707" />
                        <g id="k1nouz7c" class="chord">
                           <g id="qy3oaf0" class="stem">
                              <path d="M14206 1399 L14206 500" stroke-width="18" />
                           </g>
                           <g id="l3gvh2j" class="artic">
                              <use xlink:href="#E4A1-k6kavxu" transform="translate(13978, 1644.0) scale(0.72, 0.72)" />
                           </g>
                           <g id="j1mttsdr" class="note">
                              <g class="notehead">
                                 <use xlink:href="#E0A4-k6kavxu" transform="translate(13989, 1427) scale(0.72, 0.72)" />
                              </g>
                           </g>
                           <g id="mwsn11h" class="note">
                              <g class="notehead">
                                 <use xlink:href="#E0A9-k6kavxu" transform="translate(14007, 1067) scale(0.72, 0.72)" />
                              </g>
                           </g>
                        </g>
                        <g id="n1mj2njc" class="note">
                           <g class="notehead">
                              <use xlink:href="#E0A4-k6kavxu" transform="translate(14321, 1787) scale(0.72, 0.72)" />
                           </g>
                           <g id="r18gyh5v" class="stem">
                              <path d="M14538 1759 L14538 500" stroke-width="18" />
                           </g>
                        </g>
                        <g id="o1c6tfbf" class="note">
                           <g class="notehead">
                              <use xlink:href="#E0A9-k6kavxu" transform="translate(14653, 1067) scale(0.72, 0.72)" />
                           </g>
                           <g id="sqx139d" class="stem">
                              <path d="M14852 988 L14852 500" stroke-width="18" />
                           </g>
                        </g>
                        <g id="pcr2j97" class="note">
                           <g class="notehead">
                              <use xlink:href="#E0A4-k6kavxu" transform="translate(15085, 1427) scale(0.72, 0.72)" />
                              <use xlink:href="#E26A-k6kavxu" transform="translate(14972, 1427) scale(0.72, 0.72)" />
                              <use xlink:href="#E26B-k6kavxu" transform="translate(15311, 1427) scale(0.72, 0.72)" />
                           </g>
                           <g id="tw593xd" class="stem">
                              <path d="M15302 1399 L15302 500" stroke-width="18" />
                           </g>
                        </g>
                     </g>
                     <g id="q1meh2v9" class="beam">
                        <polygon points="15748,482 16861,482 16861,572 15748,572" />
                        <polygon points="15748,617 16089,617 16089,707 15748,707" />
                        <polygon points="16089,617 16402,617 16402,707 16089,707" />
                        <polygon points="16402,617 16861,617 16861,707 16402,707" />
                        <g id="s1oi8rw6" class="chord">
                           <g id="uifmye5" class="stem">
                              <path d="M15757 1399 L15757 500" stroke-width="18" />
                           </g>
                           <g id="twm6wf" class="artic">
                              <use xlink:href="#E4A1-k6kavxu" transform="translate(15529, 1644.0) scale(0.72, 0.72)" />
                           </g>
                           <g id="r826987" class="note">
                              <g class="notehead">
                                 <use xlink:href="#E0A4-k6kavxu" transform="translate(15540, 1427) scale(0.72, 0.72)" />
                              </g>
                           </g>
                           <g id="u1dk2sup" class="note">
                              <g class="notehead">
                                 <use xlink:href="#E0A9-k6kavxu" transform="translate(15558, 1067) scale(0.72, 0.72)" />
                              </g>
                           </g>
                        </g>
                        <g id="v1os7zz7" class="note">
                           <g class="notehead">
                              <use xlink:href="#E0A4-k6kavxu" transform="translate(15872, 1787) scale(0.72, 0.72)" />
                           </g>
                           <g id="ve4yg6z" class="stem">
                              <path d="M16089 1759 L16089 500" stroke-width="18" />
                           </g>
                        </g>
                        <g id="wikz9nw" class="note">
                           <g class="notehead">
                              <use xlink:href="#E0A9-k6kavxu" transform="translate(16203, 1067) scale(0.72, 0.72)" />
                           </g>
                           <g id="w18ei8fr" class="stem">
                              <path d="M16402 988 L16402 500" stroke-width="18" />
                           </g>
                        </g>
                        <g id="x1rfiyzb" class="note">
                           <g class="notehead">
                              <use xlink:href="#E0A4-k6kavxu" transform="translate(16635, 1427) scale(0.72, 0.72)" />
                              <use xlink:href="#E26A-k6kavxu" transform="translate(16522, 1427) scale(0.72, 0.72)" />
                              <use xlink:href="#E26B-k6kavxu" transform="translate(16861, 1427) scale(0.72, 0.72)" />
                           </g>
                           <g id="x1x8vlrd" class="stem">
                              <path d="M16852 1399 L16852 500" stroke-width="18" />
                           </g>
                        </g>
                     </g>
                     <g id="y1ntkoj1" class="beam">
                        <polygon points="17298,617 17789,617 17789,707 17298,707" />
                        <g id="alii3c2" class="chord">
                           <g id="y1dcbzvv" class="stem">
                              <path d="M17307 1759 L17307 635" stroke-width="18" />
                           </g>
                           <g id="ztoxy1r" class="note">
                              <g class="notehead">
                                 <use xlink:href="#E0A4-k6kavxu" transform="translate(17090, 1787) scale(0.72, 0.72)" />
                              </g>
                           </g>
                           <g id="bl9v6qd" class="note">
                              <g class="notehead">
                                 <use xlink:href="#E0A9-k6kavxu" transform="translate(17108, 1067) scale(0.72, 0.72)" />
                              </g>
                           </g>
                        </g>
                        <g id="dvh8ka0" class="chord">
                           <g id="z11qrb9t" class="stem">
                              <path d="M17780 1399 L17780 635" stroke-width="18" />
                           </g>
                           <g id="e185y7uo" class="artic">
                              <use xlink:href="#E4A1-k6kavxu" transform="translate(17552, 1644.0) scale(0.72, 0.72)" />
                           </g>
                           <g id="cb71kg0" class="note">
                              <g class="notehead">
                                 <use xlink:href="#E0A4-k6kavxu" transform="translate(17563, 1427) scale(0.72, 0.72)" />
                              </g>
                           </g>
                           <g id="frecsx7" class="note">
                              <g class="notehead">
                                 <use xlink:href="#E0A9-k6kavxu" transform="translate(17581, 1067) scale(0.72, 0.72)" />
                              </g>
                           </g>
                        </g>
                     </g>
                  </g>
               </g>
               <g id="y1qzq21j" class="barLine">
                  <path d="M18035 1157 L18035 1877" stroke-width="27" />
               </g>
            </g>
            <g id="gxfwc59" class="measure">
               <g id="pdcbm60" class="staff">
                  <path d="M18048 1157 L23002 1157" stroke-width="13" />
                  <path d="M18048 1337 L23002 1337" stroke-width="13" />
                  <path d="M18048 1517 L23002 1517" stroke-width="13" />
                  <path d="M18048 1697 L23002 1697" stroke-width="13" />
                  <path d="M18048 1877 L23002 1877" stroke-width="13" />
                  <g id="qm1wurr" class="layer">
                     <g id="r1q2ysa8" class="beam">
                        <polygon points="18446,617 18936,617 18936,707 18446,707" />
                        <g id="t16r0b5y" class="chord">
                           <g id="a1vh3xye" class="stem">
                              <path d="M18455 1759 L18455 635" stroke-width="18" />
                           </g>
                           <g id="srnl7hk" class="note">
                              <g class="notehead">
                                 <use xlink:href="#E0A4-k6kavxu" transform="translate(18238, 1787) scale(0.72, 0.72)" />
                              </g>
                           </g>
                           <g id="u1f4j2u8" class="note">
                              <g class="notehead">
                                 <use xlink:href="#E0A9-k6kavxu" transform="translate(18256, 1067) scale(0.72, 0.72)" />
                              </g>
                           </g>
                        </g>
                        <g id="wyndf7h" class="chord">
                           <g id="b5fly8i" class="stem">
                              <path d="M18927 1759 L18927 635" stroke-width="18" />
                           </g>
                           <g id="v5p2kml" class="note">
                              <g class="notehead">
                                 <use xlink:href="#E0A4-k6kavxu" transform="translate(18710, 1787) scale(0.72, 0.72)" />
                              </g>
                           </g>
                           <g id="xy7amxn" class="note">
                              <g class="notehead">
                                 <use xlink:href="#E0A9-k6kavxu" transform="translate(18728, 1067) scale(0.72, 0.72)" />
                              </g>
                           </g>
                        </g>
                     </g>
                     <g id="y121je0o" class="beam">
                        <polygon points="19391,482 20313,482 20313,572 19391,572" />
                        <polygon points="19854,617 20313,617 20313,707 19854,707" />
                        <g id="a35utmo" class="chord">
                           <g id="ctx0102" class="stem">
                              <path d="M19400 1399 L19400 500" stroke-width="18" />
                           </g>
                           <g id="bnpk73x" class="artic">
                              <use xlink:href="#E4A1-k6kavxu" transform="translate(19172, 1644.0) scale(0.72, 0.72)" />
                           </g>
                           <g id="z1p5g6yc" class="note">
                              <g class="notehead">
                                 <use xlink:href="#E0A4-k6kavxu" transform="translate(19183, 1427) scale(0.72, 0.72)" />
                              </g>
                           </g>
                           <g id="cou9k2u" class="note">
                              <g class="notehead">
                                 <use xlink:href="#E0A9-k6kavxu" transform="translate(19201, 1067) scale(0.72, 0.72)" />
                              </g>
                           </g>
                        </g>
                        <g id="d1w64g7r" class="note">
                           <g class="notehead">
                              <use xlink:href="#E0A9-k6kavxu" transform="translate(19655, 1067) scale(0.72, 0.72)" />
                           </g>
                           <g id="d7cmxg" class="stem">
                              <path d="M19854 988 L19854 500" stroke-width="18" />
                           </g>
                        </g>
                        <g id="eec1zpt" class="note">
                           <g class="notehead">
                              <use xlink:href="#E0A4-k6kavxu" transform="translate(20087, 1427) scale(0.72, 0.72)" />
                              <use xlink:href="#E26A-k6kavxu" transform="translate(19974, 1427) scale(0.72, 0.72)" />
                              <use xlink:href="#E26B-k6kavxu" transform="translate(20313, 1427) scale(0.72, 0.72)" />
                           </g>
                           <g id="eedixb" class="stem">
                              <path d="M20304 1399 L20304 500" stroke-width="18" />
                           </g>
                        </g>
                     </g>
                     <g id="fm3tox8" class="beam">
                        <polygon points="20750,482 21747,482 21747,572 20750,572" />
                        <polygon points="20750,617 21091,617 21091,707 20750,707" />
                        <polygon points="21091,617 21405,617 21405,707 21091,707" />
                        <polygon points="21405,617 21747,617 21747,707 21405,707" />
                        <g id="h1rn9727" class="chord">
                           <g id="f57bgq5" class="stem">
                              <path d="M20759 1399 L20759 500" stroke-width="18" />
                           </g>
                           <g id="ityfw2q" class="artic">
                              <use xlink:href="#E4A1-k6kavxu" transform="translate(20531, 1644.0) scale(0.72, 0.72)" />
                           </g>
                           <g id="g1i14njl" class="note">
                              <g class="notehead">
                                 <use xlink:href="#E0A4-k6kavxu" transform="translate(20542, 1427) scale(0.72, 0.72)" />
                              </g>
                           </g>
                           <g id="j15jdkub" class="note">
                              <g class="notehead">
                                 <use xlink:href="#E0A9-k6kavxu" transform="translate(20560, 1067) scale(0.72, 0.72)" />
                              </g>
                           </g>
                        </g>
                        <g id="kwb5k56" class="note">
                           <g class="notehead">
                              <use xlink:href="#E0A4-k6kavxu" transform="translate(20874, 1787) scale(0.72, 0.72)" />
                           </g>
                           <g id="gufg3pq" class="stem">
                              <path d="M21091 1759 L21091 500" stroke-width="18" />
                           </g>
                        </g>
                        <g id="l7f1pqk" class="note">
                           <g class="notehead">
                              <use xlink:href="#E0A9-k6kavxu" transform="translate(21206, 1067) scale(0.72, 0.72)" />
                           </g>
                           <g id="ha7aoga" class="stem">
                              <path d="M21405 988 L21405 500" stroke-width="18" />
                           </g>
                        </g>
                        <g id="m19q0uza" class="note">
                           <g class="notehead">
                              <use xlink:href="#E0A4-k6kavxu" transform="translate(21521, 1787) scale(0.72, 0.72)" />
                           </g>
                           <g id="i9fstks" class="stem">
                              <path d="M21738 1759 L21738 500" stroke-width="18" />
                           </g>
                        </g>
                     </g>
                     <g id="n14dlfgf" class="beam">
                        <polygon points="22061,482 22725,482 22725,572 22061,572" />
                        <polygon points="22061,617 22402,617 22402,707 22061,707" />
                        <g id="p141fuow" class="chord">
                           <g id="jxls0gd" class="stem">
                              <path d="M22070 1399 L22070 500" stroke-width="18" />
                           </g>
                           <g id="q1ylwyaq" class="artic">
                              <use xlink:href="#E4A1-k6kavxu" transform="translate(21842, 1644.0) scale(0.72, 0.72)" />
                           </g>
                           <g id="ovmgwqg" class="note">
                              <g class="notehead">
                                 <use xlink:href="#E0A4-k6kavxu" transform="translate(21853, 1427) scale(0.72, 0.72)" />
                              </g>
                           </g>
                           <g id="r1dzq6kt" class="note">
                              <g class="notehead">
                                 <use xlink:href="#E0A9-k6kavxu" transform="translate(21871, 1067) scale(0.72, 0.72)" />
                              </g>
                           </g>
                        </g>
                        <g id="s50sxha" class="note">
                           <g class="notehead">
                              <use xlink:href="#E0A4-k6kavxu" transform="translate(22185, 1787) scale(0.72, 0.72)" />
                           </g>
                           <g id="ktmj2aa" class="stem">
                              <path d="M22402 1759 L22402 500" stroke-width="18" />
                           </g>
                        </g>
                        <g id="t1s93qmf" class="note">
                           <g class="notehead">
                              <use xlink:href="#E0A9-k6kavxu" transform="translate(22517, 1067) scale(0.72, 0.72)" />
                           </g>
                           <g id="l18enqk2" class="stem">
                              <path d="M22716 988 L22716 500" stroke-width="18" />
                           </g>
                        </g>
                     </g>
                  </g>
               </g>
               <g id="ojl4veh" class="barLine">
                  <path d="M22989 1157 L22989 1877" stroke-width="27" />
               </g>
            </g>
            <g id="d8bk2su" class="systemMilestoneEnd u1od6naq" />
            <g id="e1fuet5p" class="systemMilestoneEnd x16hjzia" />
         </g>
         <g id="f68vz8m" class="pageMilestoneEnd v1y11mfi" />
         <g id="g1rb8ixo" class="pageMilestoneEnd u36fn7f" />
      </g>
   </svg>
   
</svg>